<svg width="183" height="43" viewBox="0 0 183 43" fill="none" xmlns="http://www.w3.org/2000/svg">
<path d="M11.5718 42.0605C11.5718 40.5315 11.2725 39.0175 10.6909 37.6049C10.1094 36.1923 9.25703 34.9088 8.18249 33.8276C7.10795 32.7464 5.83228 31.8888 4.42833 31.3037C3.02438 30.7186 1.51963 30.4174 0 30.4174L5.05287e-07 42.0605H11.5718Z" fill="url(#paint0_linear_10404_178384)"/>
<path d="M22.4282 0.0605478C22.4282 1.58955 22.7275 3.10358 23.3091 4.51619C23.8906 5.9288 24.743 7.21233 25.8175 8.2935C26.8921 9.37466 28.1677 10.2323 29.5717 10.8174C30.9756 11.4025 32.4804 11.7037 34 11.7037V0.0605488L22.4282 0.0605478Z" fill="url(#paint1_linear_10404_178384)"/>
<path d="M11.4455 14.2864C11.4455 14.8475 11.8977 15.3025 12.4554 15.3025H32.9901C33.5479 15.3025 34 15.7574 34 16.3186V41.0444C34 41.6056 33.5479 42.0605 32.9901 42.0605H23.5644C23.0066 42.0605 22.5545 41.6056 22.5545 41.0444V27.8347C22.5545 27.2735 22.1023 26.8186 21.5446 26.8186H1.0099C0.452149 26.8186 0 26.3637 0 25.8025V1.07668C0 0.515483 0.452148 0.0605469 1.0099 0.0605469H10.4356C10.9934 0.0605469 11.4455 0.515483 11.4455 1.07668V14.2864Z" fill="url(#paint2_linear_10404_178384)"/>
<path d="M64.2648 32.303V9.62305H67.5048V32.303H64.2648ZM48 32.303V9.62305H51.24V32.303H48ZM50.916 22.1942V19.3754H64.5564V22.1942H50.916Z" fill="#6145C4"/>
<path d="M80.1902 32.4974C78.3542 32.4974 76.7342 32.1194 75.3302 31.3634C73.9478 30.6074 72.8678 29.5707 72.0902 28.253C71.3342 26.9354 70.9562 25.4234 70.9562 23.717C70.9562 22.0106 71.3234 20.4986 72.0578 19.181C72.8138 17.8634 73.8398 16.8374 75.1358 16.103C76.4534 15.347 77.933 14.969 79.5746 14.969C81.2378 14.969 82.7066 15.3362 83.981 16.0706C85.2554 16.805 86.249 17.8418 86.9618 19.181C87.6962 20.4986 88.0634 22.043 88.0634 23.8142C88.0634 23.9438 88.0526 24.095 88.031 24.2678C88.031 24.4406 88.0202 24.6026 87.9986 24.7538H73.3862V22.5182H86.3786L85.115 23.2958C85.1366 22.1942 84.9098 21.2114 84.4346 20.3474C83.9594 19.4834 83.3006 18.8138 82.4582 18.3386C81.6374 17.8418 80.6762 17.5934 79.5746 17.5934C78.4946 17.5934 77.5334 17.8418 76.691 18.3386C75.8486 18.8138 75.1898 19.4942 74.7146 20.3798C74.2394 21.2438 74.0018 22.2374 74.0018 23.3606V23.879C74.0018 25.0238 74.261 26.0498 74.7794 26.957C75.3194 27.8426 76.0646 28.5338 77.015 29.0306C77.9654 29.5274 79.0562 29.7758 80.2874 29.7758C81.3026 29.7758 82.2206 29.6031 83.0414 29.2575C83.8838 28.9118 84.6182 28.3934 85.2446 27.7022L86.9618 29.7111C86.1842 30.6182 85.2122 31.3094 84.0458 31.7846C82.901 32.2598 81.6158 32.4974 80.1902 32.4974Z" fill="#6145C4"/>
<path d="M91.0864 32.303V15.131H94.0672V19.6994L93.5812 18.533C94.1212 17.4098 94.9528 16.535 96.076 15.9086C97.1992 15.2822 98.506 14.969 99.9964 14.969C101.638 14.969 103.053 15.3794 104.241 16.2002C105.429 16.9994 106.206 18.2198 106.574 19.8614L105.31 19.343C105.828 18.0254 106.736 16.967 108.032 16.1678C109.328 15.3686 110.84 14.969 112.568 14.969C113.95 14.969 115.17 15.239 116.229 15.779C117.287 16.319 118.108 17.1398 118.691 18.2414C119.296 19.343 119.598 20.7362 119.598 22.421V32.303H116.488V22.7774C116.488 21.1142 116.099 19.8614 115.322 19.019C114.544 18.1766 113.453 17.7554 112.049 17.7554C111.012 17.7554 110.105 17.9714 109.328 18.4034C108.55 18.8354 107.945 19.4726 107.513 20.315C107.103 21.1574 106.898 22.205 106.898 23.4578V32.303H103.787V22.7774C103.787 21.1142 103.398 19.8614 102.621 19.019C101.865 18.1766 100.774 17.7554 99.3484 17.7554C98.3332 17.7554 97.4368 17.9714 96.6592 18.4034C95.8816 18.8354 95.2768 19.4726 94.8448 20.315C94.4128 21.1574 94.1968 22.205 94.1968 23.4578V32.303H91.0864Z" fill="#6145C4"/>
<path d="M131.884 32.303V9.62305H134.541L149.542 28.253H148.149V9.62305H151.389V32.303H148.732L133.731 13.673H135.124V32.303H131.884Z" fill="#6145C4"/>
<path d="M153.933 32.303L161.321 22.7126L161.288 24.3002L154.257 15.131H157.724L163.103 22.1942H161.774L167.153 15.131H170.555L163.427 24.365L163.459 22.7126L170.911 32.303H167.379L161.709 24.7862L162.973 24.9806L157.4 32.303H153.933Z" fill="#6145C4"/>
<path d="M178.906 32.4974C177.178 32.4974 175.839 32.033 174.888 31.1042C173.938 30.1754 173.463 28.847 173.463 27.119V11.3726H176.573V26.9894C176.573 27.9182 176.8 28.6311 177.253 29.1278C177.729 29.6246 178.398 29.8731 179.262 29.8731C180.234 29.8731 181.044 29.603 181.692 29.063L182.664 31.2986C182.189 31.709 181.617 32.0114 180.947 32.2059C180.299 32.4002 179.619 32.4974 178.906 32.4974ZM170.547 17.6906V15.131H181.498V17.6906H170.547Z" fill="#6145C4"/>
<defs>
<linearGradient id="paint0_linear_10404_178384" x1="7.33236e-07" y1="41.7031" x2="11.6407" y2="30.4889" gradientUnits="userSpaceOnUse">
<stop stop-color="#CFC8E8"/>
<stop offset="1" stop-color="#6145C4"/>
</linearGradient>
<linearGradient id="paint1_linear_10404_178384" x1="34" y1="0.0605446" x2="22.3571" y2="11.6321" gradientUnits="userSpaceOnUse">
<stop stop-color="#CFC8E8"/>
<stop offset="1" stop-color="#6145C4"/>
</linearGradient>
<linearGradient id="paint2_linear_10404_178384" x1="0.306561" y1="0.102888" x2="33.9775" y2="41.8161" gradientUnits="userSpaceOnUse">
<stop stop-color="#BE9DF5"/>
<stop offset="1" stop-color="#3714A0"/>
</linearGradient>
</defs>
</svg>
